<svg xmlns="http://www.w3.org/2000/svg" width="117" height="147" viewBox="0 0 117 147" fill="none">
  <path d="M28.699 23.622c.04.05.075.105.105.163l20.28 48.195-8.114 5.838 7.241 3.562c.354-1.57.586-3.11.862-4.65l.83-4.638c.276-1.548.554-3.09.83-4.638l.817-4.59c.274-1.53.559-3.09.837-4.637.278-1.547.55-3.09.825-4.638l.83-4.637c.276-1.546.552-3.093.833-4.638.28-1.545.565-3.09.843-4.634.278-1.543.55-3.092.825-4.637l.828-4.591.832-4.638c.276-1.545.548-3.093.832-4.638.285-1.545.53-3.07.923-4.593.479 2.68.817 5.367 1.186 8.047.368 2.68.724 5.384 1.088 8.075.365 2.69.736 5.384 1.102 8.075.366 2.69.737 5.381 1.102 8.074.364 2.693.718 5.384 1.078 8.077.36 2.693.739 5.382 1.103 8.075.365 2.693.718 5.384 1.078 8.077.36 2.693.74 5.377 1.121 8.136l8.919-2.997-8.261-5.3 18.848-48.049.119.021v.478L88.283 38.9c-.023 2.281-.034 4.562-.058 6.845-.03 2.923-.065 5.846-.103 8.77-.032 2.819-.067 5.637-.104 8.456l-.2 15.614c-.041 3.245-.072 6.49-.11 9.724-.026 2.164-.057 4.328-.093 6.49 0 .084-.015.166-.026.278-.73.237-1.464.478-2.199.71a10689.28 10689.28 0 01-16.7 5.3 1.08 1.08 0 00-.734.683 7448.116 7448.116 0 01-9.552 22.129c-.059.135-.128.269-.216.471-.088-.194-.16-.321-.216-.454-2.49-6.871-4.977-13.745-7.459-20.62a1.176 1.176 0 00-.286-.483 1.2 1.2 0 00-.481-.299c-3.794-1.514-7.578-3.055-11.361-4.592-3.018-1.226-6.036-2.47-9.068-3.673a.839.839 0 01-.464-.317.81.81 0 01-.154-.533c-.041-1.452-.132-2.904-.134-4.357-.009-20.807-.009-41.612 0-62.416v-2.981l.134-.023zM43.95 70.8c-.06-.177-.118-.368-.192-.554-3.272-8.423-6.546-16.845-9.822-25.266-.062-.163-.146-.32-.215-.478l-.065.021V77.8c.474-.167 9.503-6.308 10.294-6.999zm40.1-23.227l-.12-.019-9.182 24.356 9.313 6.039c.007-10.206.071-20.29-.006-30.376h-.005zM58.992 90.84l.117-.038c0-1.888-.011-3.775 0-5.663.01-1.888.051-3.782.062-5.673.01-1.892 0-3.82 0-5.731V50.97c-.01-1.874.013-3.744-.073-5.621a2.67 2.67 0 00-.17.634c-.153.776-.343 1.547-.46 2.325-.308 2.072-.584 4.147-.875 6.22-.362 2.573-.73 5.146-1.09 7.72-.36 2.575-.714 5.181-1.079 7.773l-1.1 7.821c-.299 2.114-.592 4.247-.9 6.37a.842.842 0 00.215.777c1.093 1.173 2.156 2.365 3.234 3.55l2.12 2.301zm.153 2.748v23.193a.478.478 0 00.173-.254c.289-.9.569-1.805.862-2.703 1.49-4.494 2.984-8.988 4.482-13.48a.832.832 0 00-.196-.945c-1.561-1.691-3.1-3.401-4.648-5.103-.196-.22-.405-.431-.673-.712v.004zm.677-.894l.056.108c7.852 0 15.703 0 23.557-.083l-17.333-5.513-6.28 5.488zM33.556 79.617v9.812c.603-.108 12.105-4.384 12.404-4.617l-12.404-5.195zm24.951 13.209H35.923c.12.116.268.2.431.243.862.266 1.744.518 2.61.795 4.351 1.384 8.7 2.774 13.048 4.17a.658.658 0 00.728-.148c1.7-1.505 3.417-2.99 5.127-4.485.185-.152.366-.33.64-.575zM83.36 80.338l-11.132 4.155v.13l3.706 1.739c1.224.573 2.449 1.152 3.68 1.719 1.23.566 2.449 1.181 3.753 1.727l-.007-9.47z" fill="#fff"/>
  <path d="M116.708 36.312c.08 2.682.185 5.362.235 8.042.078 3.992.12 7.988-.173 11.976-.17 2.322-.303 4.654-.543 6.966a120.79 120.79 0 01-.897 6.692 128.807 128.807 0 01-1.302 6.922c-.444 2.024-1.002 4.03-1.556 6.029-.556 1.96-1.125 3.919-1.804 5.84-.786 2.233-1.668 4.438-2.567 6.633-2.254 5.523-5.188 10.704-8.484 15.691a92.04 92.04 0 01-7.337 9.578 97.753 97.753 0 01-7.798 7.968 106.87 106.87 0 01-11.682 9.284c-3.758 2.579-7.658 4.914-11.643 7.128-.764.424-1.55.816-2.307 1.254a1.018 1.018 0 01-1.115 0c-3.046-1.646-6.054-3.353-8.975-5.205a115.445 115.445 0 01-11.688-8.426c-6.953-5.732-13.08-12.201-18.2-19.567a103.092 103.092 0 01-6.545-10.798 97.839 97.839 0 01-6.012-13.935c-.897-2.65-1.666-5.345-2.397-8.04-.817-3.03-1.428-6.101-1.97-9.183a128.2 128.2 0 01-1.096-7.62c-.288-2.548-.479-5.105-.627-7.662A139.16 139.16 0 010 48.6c0-4.11.038-8.223.083-12.333.035-3.19.09-6.379.167-9.568.076-3.699.168-7.398.251-11.096 0-.468.065-.938.058-1.406a1.147 1.147 0 01.14-.623c.105-.19.262-.349.453-.457.337-.21.684-.403 1.042-.576 2.974-1.389 5.942-2.798 8.935-4.147 2.447-1.102 4.967-2.043 7.515-2.94 2.069-.734 4.18-1.315 6.307-1.84 2.072-.509 4.153-.979 6.247-1.405 1.721-.34 3.46-.6 5.2-.833 1.801-.245 3.608-.443 5.419-.608C43.906.58 46 .444 48.079.297 53.039-.05 58-.05 62.963.077c2.477.06 4.952.242 7.424.413 1.874.125 3.745.282 5.611.49 1.726.194 3.444.46 5.163.715 3.677.547 7.264 1.443 10.854 2.41 5.16 1.394 10.074 3.4 14.864 5.713 2.71 1.298 5.395 2.643 8.095 3.973.161.079.311.184.476.245.689.272.927.825.96 1.487.077 1.543.173 3.086.198 4.632.085 5.389.142 10.778.21 16.167l-.11-.01zm-4.156-6.8h-.035v-9.46c0-.92-.09-1.84-.125-2.758a.723.723 0 00-.116-.387.747.747 0 00-.307-.27c-.371-.195-.724-.418-1.1-.602a479.82 479.82 0 00-6.012-2.905 105.996 105.996 0 00-4.661-2.019c-2.473-.997-4.945-1.979-7.515-2.748-1.638-.49-3.257-1.058-4.922-1.47-1.974-.49-3.963-.906-5.952-1.318a51.962 51.962 0 00-3.306-.553c-.93-.13-1.866-.206-2.8-.301-1.454-.145-2.904-.307-4.36-.424-1.134-.09-2.276-.118-3.413-.184-3.562-.21-7.127-.162-10.689-.115-3.401.044-6.8.169-10.192.446-1.355.11-2.71.215-4.063.357-1.568.164-3.134.363-4.702.551-1.002.12-1.986.223-2.97.383-1.253.205-2.505.467-3.758.693a72.773 72.773 0 00-8.732 2.045c-2.72.845-5.453 1.663-8.116 2.66-2.555.958-5.027 2.12-7.514 3.217a9.31 9.31 0 00-1.33.788 1.01 1.01 0 00-.34.363.984.984 0 00-.121.478c-.06 1.055-.18 2.106-.226 3.162-.165 3.395-.28 6.775-.416 10.16-.017.449-.017.9-.035 1.35-.095 2.66-.208 5.32-.285 7.98a523.084 523.084 0 00-.2 8.863 95.861 95.861 0 00.077 5.693c.11 2.325.277 4.648.5 6.969.236 2.434.529 4.863.878 7.285.265 1.84.62 3.674.989 5.489.41 2.026.832 4.03 1.333 6.018.483 1.899 1.072 3.768 1.643 5.634a89.583 89.583 0 005.12 12.91 95.182 95.182 0 008.015 13.626 92.07 92.07 0 0014.504 16.135 115.73 115.73 0 009.243 7.3 120.508 120.508 0 0011.377 7.103.74.74 0 00.832 0c1.002-.578 2.004-1.134 3.005-1.714a106.797 106.797 0 0012.14-8.001c4.6-3.539 8.962-7.329 12.884-11.588a94.02 94.02 0 0011.107-14.563 99.072 99.072 0 008.016-16.394c1.032-2.695 1.861-5.448 2.64-8.221.724-2.587 1.383-5.186 1.899-7.821.689-3.518 1.23-7.057 1.623-10.619.386-3.15.586-6.32.598-9.492-.027-3.993-.08-7.988-.097-11.98-.025-3.917-.013-7.834-.013-11.75z" fill="#fff"/>
</svg>