<?xml version="1.0" encoding="UTF-8" standalone="no"?>
<!-- Created with Inkscape (http://www.inkscape.org/) -->

<svg
   width="158.75mm"
   height="200.55417mm"
   viewBox="0 0 158.75 200.55417"
   version="1.1"
   id="svg8721"
   xml:space="preserve"
   xmlns="http://www.w3.org/2000/svg"
   xmlns:svg="http://www.w3.org/2000/svg"
   xmlns:rdf="http://www.w3.org/1999/02/22-rdf-syntax-ns#"
   xmlns:cc="http://creativecommons.org/ns#"
   xmlns:dc="http://purl.org/dc/elements/1.1/"><title
     id="title10737">Эмблема 4 БрОП</title><defs
     id="defs8718" /><path
     style="fill:#000000;stroke-width:0.264583"
     d="M 76.073237,199.03183 C 55.517731,187.92656 49.745507,184.16545 39.42844,175.1545 26.962699,164.2669 17.975487,152.76773 11.388896,139.2778 5.2217115,126.64685 2.0203545,114.05229 0.47726046,96.349965 c -0.538539,-6.1781 -0.629861,-28.90224 -0.230364,-57.322804 L 0.48826846,21.855696 1.2801785,20.95376 c 0.435551,-0.496065 1.219902,-1.136104 1.743003,-1.422309 0.523101,-0.286206 1.367811,-0.776188 1.877134,-1.088851 C 8.2963745,16.357834 17.693542,11.606735 22.269402,9.6609912 32.585929,5.2742072 42.964131,2.6734762 56.186881,1.1614232 66.431701,-0.01009584 81.265997,-0.33424984 92.519997,0.36748516 110.63641,1.4971212 123.42063,4.2154522 136.22706,9.6609912 c 4.57586,1.9457438 13.97303,6.6968428 17.36909,8.7816088 0.50932,0.312663 1.35403,0.802645 1.87713,1.088851 0.5231,0.286205 1.30746,0.926244 1.74301,1.422309 l 0.79191,0.901936 0.24137,17.171465 c 0.39949,28.420564 0.30817,51.144704 -0.23037,57.322804 -1.54309,17.702325 -4.74445,30.296885 -10.91163,42.927835 -5.40347,11.06677 -11.89385,20.1159 -20.88566,29.11953 -12.25128,12.26739 -22.05525,19.1396 -43.326403,30.37013 -1.82134,0.96161 -3.14578,1.49369 -3.70416,1.48809 -0.51665,-0.005 -1.78128,-0.50148 -3.11811,-1.22372 z"
     id="path8868" /><path
     style="fill:#ffd700;stroke-width:0.264583;fill-opacity:1"
     d="m 77.522917,193.19588 c -0.800365,-0.39132 -1.51474,-0.77456 -1.5875,-0.85164 -0.296852,-0.31444 -3.753049,-2.3734 -3.98403,-2.3734 -0.137118,0 -0.249304,-0.11104 -0.249304,-0.24676 0,-0.13571 -0.211918,-0.31401 -0.470926,-0.39622 -0.484698,-0.15383 -3.116165,-1.76489 -3.685093,-2.25611 -0.17576,-0.15175 -0.374912,-0.27591 -0.442563,-0.27591 -0.144897,0 -5.115709,-3.0394 -6.646209,-4.06382 -0.582084,-0.38961 -1.236927,-0.82284 -1.455209,-0.96272 -0.817388,-0.52381 -7.583797,-5.20838 -8.652486,-5.99036 C 44.488775,171.49051 35.464298,162.6982 30.426866,156.36875 21.363302,144.98054 14.332898,130.35435 10.459946,114.82917 7.3975833,102.55333 6.0853762,89.017469 6.0684312,69.529199 6.0585297,58.141802 6.5612018,26.853452 6.7766999,25.443668 c 0.1297958,-0.849121 0.2962952,-0.960145 4.4181521,-2.946097 6.858867,-3.30467 9.259444,-4.415944 11.469007,-5.309224 1.141076,-0.461313 2.43187,-0.996447 2.868433,-1.189186 0.436562,-0.192739 1.389062,-0.543645 2.116666,-0.779791 0.727605,-0.236145 1.561042,-0.534693 1.852084,-0.66344 2.103421,-0.930485 9.716103,-2.973664 15.213541,-4.083186 C 62.750475,6.8326448 89.2302,6.5133554 108.47917,9.7038781 c 8.02621,1.3303479 18.7636,4.3901079 24.47395,6.9741769 0.29105,0.131703 1.64317,0.722493 3.00471,1.312867 3.34188,1.44905 15.08791,7.304548 15.91128,7.931904 0.65572,0.499623 0.66117,0.539352 0.89559,6.538364 0.12973,3.319627 0.24878,16.751311 0.26456,29.848186 0.0273,22.694908 2.6e-4,24.147434 -0.57682,30.948898 -0.96032,11.318146 -1.88403,17.336126 -4.00134,26.068816 -3.36428,13.87568 -10.4422,27.26067 -19.99584,37.81392 -3.02671,3.3434 -9.60237,9.46021 -12.96471,12.06003 -0.5646,0.43657 -1.49696,1.18532 -2.0719,1.6639 -1.72871,1.43899 -8.11855,6.23606 -10.23564,7.68425 -1.08894,0.74489 -2.69426,1.84634 -3.567385,2.44767 -1.469827,1.01229 -7.628604,4.97651 -12.303125,7.91916 -1.091406,0.68705 -3.303995,2.09841 -4.916866,3.13637 -1.612871,1.03796 -3.041621,1.87995 -3.175,1.8711 -0.133379,-0.009 -0.897353,-0.33628 -1.697717,-0.72761 z m 3.24994,-6.30453 c 2.432759,-1.23066 13.438963,-8.72765 20.297973,-13.82619 4.1564,-3.08959 13.06101,-10.23306 15.26215,-12.24362 7.6454,-6.98343 13.98714,-14.32717 17.32572,-20.0632 0.46584,-0.80037 0.9221,-1.51474 1.01391,-1.5875 0.19591,-0.15526 2.12344,-3.72923 3.63876,-6.74688 3.86636,-7.69957 7.49851,-20.65153 8.53274,-30.42708 0.60808,-5.74755 0.7551,-13.873547 0.76871,-42.488383 0.011,-23.184541 -0.058,-29.883132 -0.3113,-30.215793 C 146.98015,28.870683 140.19849,25.4 139.69524,25.4 c -0.1429,0 -0.25982,-0.119062 -0.25982,-0.264583 0,-0.145521 -0.15623,-0.264583 -0.34718,-0.264583 -0.19095,0 -0.87233,-0.253724 -1.51417,-0.56383 -4.13621,-1.998397 -13.60566,-5.78617 -14.46546,-5.78617 -0.19202,0 -0.55587,-0.115361 -0.80855,-0.256358 -1.19877,-0.668898 -9.65739,-2.888355 -13.10983,-3.439884 -0.95732,-0.152933 -1.8959,-0.334192 -2.08572,-0.402797 -0.67148,-0.242681 -7.02566,-0.947942 -11.986802,-1.330436 -8.353557,-0.644041 -22.834182,-0.457049 -32.014583,0.413411 -4.176411,0.395996 -11.394702,1.260601 -13.096875,1.568739 -9.71382,1.758461 -13.180049,2.629762 -20.769792,5.220869 -1.89177,0.645843 -3.737239,1.268888 -4.101041,1.384544 -1.079114,0.343061 -8.188972,3.4471 -10.129976,4.422569 -1.110389,0.558035 -1.876542,1.126444 -2.007707,1.489513 -0.626218,1.733402 -1.923522,51.057613 -1.492555,56.747724 0.187108,2.470412 0.770899,8.542321 1.176271,12.23419 0.352608,3.211338 1.26946,8.924742 1.770422,11.032482 0.235278,0.98989 0.637677,2.81184 0.894221,4.04877 1.639874,7.90666 5.830329,19.12563 10.374389,27.775 1.900184,3.61691 2.138085,4.01615 5.357802,8.99159 5.659011,8.74488 14.855081,18.41792 23.569602,24.79209 0.430276,0.31472 1.348435,0.99898 2.040353,1.52057 2.147543,1.61889 12.856268,8.35825 13.281107,8.35825 0.04477,0 1.851932,1.01153 4.01592,2.24785 2.337181,1.33527 4.233492,2.24831 4.670925,2.24896 0.405021,5.3e-4 1.357521,-0.3131 2.116666,-0.69713 z"
     id="path8904" /><path
     style="fill:#ffd700;stroke-width:0.264583;fill-opacity:1"
     d="m 77.634962,176.27435 c -0.156657,-0.10678 -0.619117,-1.2657 -1.027689,-2.57539 -0.672314,-2.15511 -2.216285,-6.89556 -7.408108,-22.74509 -0.951728,-2.90542 -1.730415,-5.43844 -1.730415,-5.62894 0,-0.1905 -0.327422,-0.46493 -0.727604,-0.60985 -0.400182,-0.14492 -0.965729,-0.37172 -1.256771,-0.50399 -0.291042,-0.13227 -1.541198,-0.61826 -2.778125,-1.07997 -1.236927,-0.46171 -2.487083,-0.94034 -2.778125,-1.06361 -0.291042,-0.12328 -1.838854,-0.71532 -3.439583,-1.31564 -1.60073,-0.60033 -3.148542,-1.19058 -3.439584,-1.31166 -0.841055,-0.34992 -7.466277,-2.89058 -9.789583,-3.75413 -1.164167,-0.43272 -2.592917,-0.99713 -3.175,-1.25426 -0.582083,-0.25712 -1.609691,-0.62753 -2.283574,-0.82311 l -1.225243,-0.35561 0.08641,-11.39478 c 0.04753,-6.26713 0.214046,-18.479 0.370044,-27.137485 0.626668,-34.782123 0.803405,-46.625193 0.803405,-53.836169 0,-4.170714 0.104198,-7.547165 0.232904,-7.547165 0.128098,0 1.275951,2.530078 2.550782,5.622395 1.274831,3.092318 2.955962,7.133286 3.735845,8.979927 0.779884,1.846644 1.417969,3.425518 1.417969,3.508613 0,0.0831 0.22126,0.655799 0.491691,1.272678 0.672888,1.534925 1.063709,2.458463 1.762236,4.164304 2.334342,5.700585 4.350205,10.605555 6.089406,14.816667 2.281841,5.524994 6.70482,16.585602 8.146839,20.372917 0.526367,1.382447 1.37719,3.597915 1.89072,4.92326 0.51353,1.325343 0.92995,2.754093 0.925378,3.174998 -0.0098,0.89977 0.08937,0.82143 -5.151062,4.07018 -2.182812,1.35321 -4.534297,2.81272 -5.225521,3.24335 -0.691224,0.43063 -1.256771,0.88402 -1.256771,1.00755 0,0.12352 0.386953,0.39273 0.859896,0.59825 1.951035,0.8478 4.653844,2.03612 6.019271,2.64644 3.643109,1.62838 4.262961,1.84343 4.533575,1.57281 0.149492,-0.14949 0.433718,-1.44683 0.631608,-2.88296 0.197892,-1.43615 0.488767,-3.32554 0.64639,-4.19867 0.15762,-0.87312 0.472003,-2.77812 0.698627,-4.23333 0.773142,-4.964529 0.899922,-5.755458 1.033804,-6.449487 0.134559,-0.697523 0.338709,-1.996239 1.044932,-6.647392 0.385109,-2.536306 1.011994,-6.469657 1.496981,-9.392708 0.144867,-0.873125 0.443595,-2.778125 0.663839,-4.233333 0.899898,-5.945797 1.136994,-7.486722 1.404504,-9.128126 0.666739,-4.090995 1.112938,-6.919576 1.481666,-9.392708 0.216964,-1.455208 0.50391,-3.300677 0.63766,-4.101042 0.394546,-2.360975 1.03528,-6.344378 1.340596,-8.334375 0.156284,-1.018646 0.453654,-2.923646 0.660818,-4.233333 0.207166,-1.309688 0.435602,-2.8575 0.507632,-3.439584 0.07203,-0.582083 0.260289,-1.772708 0.418351,-2.645833 0.158062,-0.873125 0.454605,-2.659063 0.658985,-3.96875 0.92425,-5.922736 1.076875,-6.693486 1.879047,-9.489238 0.203126,-0.707935 0.369318,-1.564111 0.369318,-1.902614 0,-0.338503 0.105572,-0.680707 0.234604,-0.760454 0.455065,-0.281244 0.767061,0.532274 0.956881,2.495014 0.10555,1.091406 0.285872,2.163433 0.400714,2.382282 0.114845,0.218849 0.344472,1.588068 0.510281,3.042709 0.165812,1.454641 0.532281,4.371207 0.814377,6.481259 0.55785,4.172673 1.338215,10.451135 2.113595,17.005044 0.271521,2.295014 0.555641,4.378608 0.63138,4.630208 0.07574,0.2516 0.387202,2.838707 0.692137,5.749124 0.304935,2.910416 0.611661,5.529791 0.681612,5.820833 0.122597,0.510085 0.879237,6.73377 1.962158,16.139584 0.284821,2.473854 0.581448,4.764516 0.659172,5.090358 0.07772,0.325845 0.382318,2.707095 0.676876,5.291667 0.29456,2.584574 0.5818,5.056412 0.63831,5.492975 0.05651,0.436562 0.350075,2.83517 0.652361,5.33024 0.30229,2.49508 0.667949,5.16047 0.812578,5.9231 0.144632,0.76262 0.262964,1.79489 0.262964,2.29392 0,0.49902 0.118838,1.12937 0.264084,1.40077 0.225562,0.42146 0.389593,0.45399 1.124479,0.22298 0.473218,-0.14875 1.634302,-0.49091 2.580187,-0.76034 5.458847,-1.55494 8.742067,-2.55933 8.907777,-2.72505 0.18112,-0.18111 -0.51801,-0.77921 -1.63124,-1.39552 -1.55287,-0.85969 -9.587423,-5.78412 -9.950728,-6.09887 -0.390038,-0.3379 -0.38658,-0.4828 0.04178,-1.750645 0.485388,-1.436647 1.690116,-4.695833 2.075751,-5.615585 0.122029,-0.291042 0.58342,-1.481667 1.025316,-2.645833 0.441897,-1.164167 1.403858,-3.66448 2.137691,-5.556251 2.49458,-6.430875 4.59131,-11.896119 6.29343,-16.404167 0.93406,-2.473854 1.87357,-4.873098 2.0878,-5.331653 0.21423,-0.458554 0.38951,-0.907677 0.38951,-0.99805 0,-0.09037 0.53922,-1.560658 1.19827,-3.267306 3.03563,-7.860919 5.2353,-13.489099 5.55585,-14.215491 0.55827,-1.265036 3.03546,-7.770318 3.03546,-7.97133 0,-0.350636 1.94759,-4.067212 2.13134,-4.067212 0.23827,0 0.26831,92.723913 0.0314,97.063543 l -0.17842,3.26874 -1.05833,0.34423 c -0.58208,0.18932 -2.30849,0.72037 -3.83646,1.18011 -1.52797,0.45973 -3.07578,0.93814 -3.43958,1.06313 -0.3638,0.12499 -2.56646,0.8237 -4.89479,1.55269 -6.76459,2.11795 -13.703345,4.28723 -14.412992,4.50596 -0.42986,0.1325 -0.71533,0.46755 -0.831347,0.97576 -0.195747,0.85742 -2.780339,7.18275 -4.451162,10.89342 -0.59086,1.31222 -1.07429,2.45408 -1.07429,2.53746 0,0.0834 -0.348285,0.9011 -0.773967,1.81714 -0.425681,0.91604 -1.629003,3.74912 -2.674049,6.29574 -1.792155,4.3672 -2.612281,6.31604 -3.173309,7.54062 -0.133337,0.29104 -0.459259,1.17576 -0.724265,1.96603 -0.488183,1.45579 -0.758844,1.75397 -1.273615,1.40311 z m 7.42106,-28.39103 c 1.823146,-4.01214 3.314811,-7.41724 3.314811,-7.56687 0,-0.38345 -8.213145,-8.55395 -8.598593,-8.55395 -0.237104,0 -0.36059,2.47735 -0.491265,9.85573 -0.164706,9.29968 -0.236866,17.57119 -0.160999,18.45469 0.04418,0.51447 1.824228,-3.14084 5.936046,-12.1896 z M 72.881778,135.92969 c 4.19308,-3.38163 4.666946,-3.74663 5.33072,-4.10601 0.731295,-0.39593 1.306015,-1.35351 0.988576,-1.64712 -0.315265,-0.2916 -35.077398,-0.8394 -35.359587,-0.55721 -0.130399,0.1304 0.782686,0.54135 2.107441,0.9485 1.285642,0.39512 2.932843,0.90031 3.660447,1.12264 0.727604,0.22232 2.215885,0.68784 3.307292,1.03448 1.091406,0.34665 2.817812,0.88438 3.836458,1.19496 1.018646,0.31058 2.090208,0.65203 2.38125,0.75876 0.291042,0.10673 1.719792,0.55715 3.175,1.00092 1.455208,0.44378 3.717396,1.1559 5.027083,1.58251 1.309688,0.42661 2.484181,0.79246 2.609988,0.81302 0.125807,0.0205 1.446705,-0.9449 2.935332,-2.14545 z m 40.095302,-5.46576 c 0,-0.19153 -3.43074,-1.71684 -8.33437,-3.70548 -1.08905,-0.44165 -3.77222,-1.61292 -5.778271,-2.52234 -1.140759,-0.51715 -2.18417,-0.94027 -2.318695,-0.94027 -0.134525,0 -0.451334,-0.11943 -0.704022,-0.2654 -0.252688,-0.14597 -1.732611,-0.79062 -3.288723,-1.43256 l -2.82929,-1.16716 -2.594668,3.06847 c -1.427065,1.68766 -3.216323,3.7313 -3.976124,4.54141 -0.759802,0.81012 -1.38488,1.62177 -1.389063,1.80367 -0.0058,0.25215 1.20251,0.33947 5.085625,0.36751 2.801276,0.0203 8.546042,0.11672 12.766146,0.21442 12.403865,0.28716 13.361455,0.28986 13.361455,0.0377 z m -32.969911,-6.96966 c 0.08887,-3.09231 0.28593,-13.00427 0.437914,-22.02656 0.151985,-9.022292 0.387435,-22.119167 0.523222,-29.104167 0.351359,-18.074318 0.336629,-22.691681 -0.07195,-22.556762 -0.199445,0.06586 -0.44872,1.046102 -0.627972,2.469444 -0.330029,2.62055 -0.771176,5.768584 -1.146451,8.181068 -0.135818,0.873125 -0.437663,2.956718 -0.670761,4.630208 -0.863409,6.198653 -1.214387,8.63522 -1.448271,10.054167 -0.131921,0.800365 -0.432586,2.94349 -0.668141,4.7625 -0.235556,1.81901 -0.535512,3.902604 -0.666568,4.630208 -0.131056,0.727605 -0.31042,2.037292 -0.398587,2.910417 -0.08817,0.873125 -0.267493,2.123281 -0.398507,2.778125 -0.131014,0.654844 -0.424897,2.678906 -0.653074,4.497917 -0.228177,1.81901 -0.524087,3.902604 -0.657579,4.630208 -0.133493,0.727607 -0.437015,2.751667 -0.674492,4.497917 -0.237474,1.74625 -0.5954,4.36563 -0.795391,5.82083 -0.199987,1.45521 -0.417364,3.06256 -0.48306,3.57188 -0.06569,0.50932 -0.305755,2.22307 -0.533471,3.80832 -0.228886,1.59341 -0.31731,3.05511 -0.197742,3.26877 0.287189,0.51318 8.567769,8.79791 8.793501,8.79791 0.09669,0 0.248513,-2.53008 0.33738,-5.6224 z m 34.385501,-0.50366 c 0.31505,-4.43847 0.21547,-9.41103 -0.1916,-9.56724 -0.37821,-0.14513 -1.5235,0.16798 -9.02919,2.46848 -2.47386,0.75824 -4.85511,1.47072 -5.291672,1.58329 -0.436562,0.11257 -1.072107,0.31391 -1.412322,0.44744 -0.845111,0.33168 -0.527283,0.55588 2.867534,2.02279 1.52797,0.66025 4.92125,2.15293 7.54062,3.31707 2.61938,1.16415 4.8935,2.12415 5.05361,2.13335 0.1801,0.0103 0.35667,-0.90683 0.46302,-2.40518 z m -64.915587,-0.22608 c 1.236927,-0.45458 2.78474,-1.00324 3.439584,-1.21926 0.654843,-0.21601 1.42875,-0.498 1.719791,-0.62664 0.291042,-0.12864 1.300036,-0.49708 2.242212,-0.81875 3.136429,-1.07081 3.527705,-1.28198 3.171216,-1.71152 -0.175366,-0.21131 -0.420346,-0.38419 -0.544404,-0.38419 -0.124055,0 -3.705902,-1.48535 -7.959659,-3.30078 -5.639837,-2.40699 -7.789875,-3.21299 -7.940077,-2.97656 -0.235714,0.37102 -0.29392,12.72389 -0.06105,12.95676 0.149974,0.14997 1.422467,-0.26166 5.932387,-1.91906 z M 115.86209,69.201772 c 0.0151,-4.403733 -0.0711,-7.29343 -0.21328,-7.14375 -0.13128,0.138245 -0.42299,0.787135 -0.64823,1.441979 -0.49549,1.440569 -1.50151,4.18905 -3.34114,9.128125 -0.75882,2.037292 -1.59303,4.299479 -1.8538,5.027084 -0.26077,0.727604 -1.15767,3.168385 -1.99311,5.423958 -0.83544,2.255573 -2.50911,6.839479 -3.71927,10.186459 -2.06328,5.706483 -2.17234,6.112496 -1.75146,6.520293 0.24685,0.23918 1.99664,1.47862 3.88841,2.75431 1.89177,1.27569 3.47927,2.41945 3.52778,2.54169 0.0485,0.12224 0.19399,0.22225 0.3233,0.22225 0.12931,0 1.33978,0.72553 2.68993,1.61229 l 2.45482,1.61229 0.30532,-15.965936 c 0.16793,-8.781265 0.31676,-19.293735 0.33073,-23.361042 z M 45.117491,106.81507 c 0.724286,-0.4787 2.686103,-1.80874 4.359592,-2.95564 1.67349,-1.14691 4.173802,-2.85505 5.55625,-3.79586 1.382448,-0.940817 2.560823,-1.751575 2.618611,-1.801689 0.116906,-0.101378 -0.640231,-2.436744 -1.705589,-5.260838 -0.384273,-1.018646 -0.818195,-2.268802 -0.964271,-2.778125 -0.14608,-0.509323 -0.485394,-1.461823 -0.754036,-2.116667 -0.422612,-1.030155 -2.318243,-6.105657 -3.50805,-9.392708 -0.210696,-0.582083 -0.945624,-2.606146 -1.63317,-4.497917 -1.331341,-3.663156 -1.452404,-4.001227 -3.544223,-9.897435 -1.40702,-3.965956 -1.510805,-4.19235 -1.792698,-3.91046 -0.258889,0.258889 -0.43148,47.277689 -0.17354,47.277689 0.123333,0 0.81684,-0.39166 1.541124,-0.87035 z"
     id="path10007" /><metadata
     id="metadata10735"><rdf:RDF><cc:Work
         rdf:about=""><dc:title>Эмблема 4 БрОП</dc:title></cc:Work></rdf:RDF></metadata></svg>
